<svg width="234" height="60" viewBox="0 0 234 60" fill="none" xmlns="http://www.w3.org/2000/svg">
<g clip-path="url(#clip0_3_34)">
<path d="M13.1484 10.8057H0V41.3924H13.1484V10.8057Z" fill="#1D1D1B"/>
<path d="M50.1796 10.8057V41.3924L31.6675 60.0001V41.3924L37.0451 36.0071V10.8057H50.1796Z" fill="#1D1D1B"/>
<path d="M31.6675 10.8057V41.4133L31.3266 41.7346L13.1484 59.9861V41.3924L18.5191 36.0071V10.8057H31.6675Z" fill="#1D1D1B"/>
<path d="M50.1797 0H37.0452V5.40629H50.1797V0Z" fill="#1D1D1B"/>
<path d="M85.1168 21.3247H88.2961L83.3289 38.6751L78.6887 38.6472L75.906 27.2269L73.1511 38.6472L68.4831 38.6751L63.5437 21.3247H66.723L70.9179 35.4341L74.4172 21.3247H77.4226L80.901 35.4341L85.1238 21.3247H85.1168Z" fill="#1D1D1B"/>
<path d="M107.24 24.1956H95.4478V28.4354H105.18V31.5786H95.4478V35.8394H107.24V38.6822H92.0459V21.3318H107.24V24.1956Z" fill="#1D1D1B"/>
<path d="M129.314 31.425V35.3924C129.314 36.2864 129 37.0618 128.367 37.6974C127.734 38.333 126.983 38.6543 126.106 38.6543L114.238 38.6822C113.229 38.6822 112.401 38.2911 111.755 37.5088C111.261 36.9081 111.01 36.1887 111.01 35.3365V34.3377C111.01 34.3377 111.024 34.2888 111.059 34.2888L114.036 34.2608C114.036 34.2608 114.085 34.2748 114.085 34.3097V34.4564C114.085 34.8196 114.217 35.113 114.482 35.3295C114.683 35.4762 114.892 35.553 115.129 35.553L125.188 35.5251C125.522 35.5251 125.793 35.3854 126.009 35.099C126.141 34.9174 126.211 34.6939 126.211 34.4285V31.9838C126.211 31.8371 126.155 31.7044 126.051 31.5856C125.946 31.4669 125.807 31.411 125.64 31.411H113.849C113.069 31.411 112.401 31.1316 111.852 30.5728C111.295 30.014 111.017 29.3505 111.017 28.5682V24.5798C111.017 23.6857 111.33 22.9104 111.963 22.2748C112.589 21.6322 113.355 21.3179 114.245 21.3179H126.093C126.99 21.3179 127.748 21.6392 128.374 22.2748C129 22.9174 129.321 23.6857 129.321 24.5798V25.6764C129.321 25.6764 129.307 25.7253 129.272 25.7253H126.266C126.266 25.7253 126.218 25.7113 126.218 25.6764V25.5297C126.218 25.2294 126.113 24.9779 125.905 24.7684C125.696 24.5588 125.439 24.4541 125.126 24.4541H115.191C114.892 24.4541 114.635 24.5588 114.419 24.7684C114.203 24.9779 114.099 25.2294 114.099 25.5297V27.9954C114.099 28.163 114.155 28.2958 114.273 28.4075C114.391 28.5193 114.523 28.5682 114.669 28.5682H126.489C127.268 28.5682 127.936 28.8476 128.486 29.4063C129.042 29.9651 129.321 30.6357 129.321 31.411L129.314 31.425Z" fill="#1D1D1B"/>
<path d="M133.063 21.3247H136.417V35.5599H147.415V38.6751H133.063V21.3247Z" fill="#1D1D1B"/>
<path d="M166.359 24.1956H154.567V28.4354H164.3V31.5786H154.567V35.8394H166.359V38.6822H151.165V21.3318H166.359V24.1956Z" fill="#1D1D1B"/>
<path d="M181.782 21.3247H185.358L178.853 32.1163V38.6751H175.5V32.1163L168.995 21.3247H172.543L177.163 29.1757L181.782 21.3247Z" fill="#1D1D1B"/>
<path d="M201.275 38.6753C200.378 38.6753 199.619 38.3609 198.993 37.7253C198.367 37.0967 198.047 36.3283 198.047 35.4343V31.9419H201.129V34.5332C201.129 34.8196 201.233 35.0571 201.442 35.2597C201.651 35.4622 201.894 35.56 202.173 35.56H208.879C209.164 35.56 209.401 35.4622 209.602 35.2597C209.804 35.0571 209.902 34.8196 209.902 34.5332V21.3179H213.255V35.4273C213.255 36.3214 212.942 37.0897 212.309 37.7183C211.683 38.347 210.924 38.6683 210.048 38.6683H201.282L201.275 38.6753Z" fill="#1D1D1B"/>
<path d="M229.826 38.6751L226.375 33.4923H220.365V38.6751H217.011V21.3247H230.765C231.656 21.3247 232.421 21.646 233.047 22.2816C233.673 22.9242 233.993 23.6856 233.993 24.5657V30.2723C233.993 31.1035 233.715 31.823 233.158 32.4306C232.602 33.0383 231.92 33.3876 231.113 33.4923L230.049 33.5901L233.423 38.6751H229.819H229.826ZM220.365 24.44V30.398H229.875C230.16 30.398 230.396 30.2933 230.598 30.0837C230.8 29.8742 230.897 29.6297 230.897 29.3503V25.4877C230.897 25.1873 230.8 24.9359 230.598 24.7403C230.396 24.5447 230.16 24.44 229.875 24.44H220.365Z" fill="#1D1D1B"/>
</g>
<defs>
<clipPath id="clip0_3_34">
<rect width="234" height="60" fill="white"/>
</clipPath>
</defs>
</svg>
